<svg width="66" height="24" viewBox="0 0 66 24" fill="none" xmlns="http://www.w3.org/2000/svg">
<g clip-path="url(#clip0_109_727)">
<path d="M9.54628 2.00171H10.0912C11.9829 2.04283 13.8437 2.80362 15.1802 4.15043C14.6868 4.6542 14.183 5.1374 13.6998 5.64117C12.9493 4.96263 12.0446 4.4383 11.0576 4.25324C9.59768 3.94481 8.0247 4.2224 6.80126 5.05515C5.46474 5.92903 4.56001 7.40949 4.36468 8.99276C4.14878 10.5555 4.59086 12.2004 5.60867 13.4136C6.58536 14.5959 8.0761 15.3361 9.61824 15.3875C11.0576 15.4698 12.5586 15.0277 13.6073 14.0201C14.4297 13.3108 14.8101 12.2313 14.9335 11.1826C13.2269 11.1826 11.5202 11.1929 9.81358 11.1826V9.06473H17C17.3701 11.3368 16.8355 13.8968 15.1083 15.5212C13.9568 16.6726 12.3633 17.3512 10.7389 17.4848C9.16588 17.639 7.54149 17.3409 6.14328 16.5801C4.46749 15.6857 3.13096 14.1744 2.47298 12.3958C1.85612 10.7611 1.84584 8.91051 2.42157 7.26556C2.9459 5.76454 3.95344 4.4383 5.24884 3.51301C6.49283 2.598 8.00413 2.09424 9.54628 2.00171Z" fill="#3780FF"/>
<path d="M50.7729 2.53638H52.9731V17.2176C52.2431 17.2176 51.5029 17.2279 50.7729 17.2073C50.7832 12.3238 50.7729 7.43011 50.7729 2.53638V2.53638Z" fill="#38B137"/>
<path d="M21.8937 7.62538C23.2507 7.36836 24.7209 7.65622 25.8415 8.46842C26.8594 9.18809 27.5688 10.319 27.7847 11.5527C28.0622 12.9818 27.7127 14.5445 26.7874 15.6754C25.7901 16.9399 24.1555 17.6185 22.5619 17.5157C21.102 17.4334 19.6833 16.7035 18.8197 15.5109C17.843 14.1949 17.6065 12.3855 18.1411 10.8433C18.6757 9.18808 20.187 7.92353 21.8937 7.62538V7.62538ZM22.2021 9.57876C21.6469 9.72269 21.1329 10.0414 20.7628 10.4938C19.7655 11.6864 19.8272 13.6295 20.9273 14.7398C21.5544 15.3772 22.5002 15.6754 23.3741 15.5006C24.1863 15.3567 24.8957 14.8118 25.2864 14.0921C25.9649 12.8687 25.7696 11.1826 24.7312 10.2265C24.0629 9.6096 23.0863 9.35258 22.2021 9.57876Z" fill="#FA3913"/>
<path d="M32.7916 7.6254C34.344 7.32726 36.0403 7.75906 37.2021 8.84884C39.0938 10.5452 39.2994 13.722 37.6853 15.6754C36.7086 16.9091 35.1253 17.5877 33.5626 17.5157C32.0719 17.4746 30.6017 16.7343 29.7175 15.5109C28.7203 14.1641 28.5044 12.3135 29.0698 10.7405C29.6353 9.1367 31.1158 7.91327 32.7916 7.6254V7.6254ZM33.1 9.57879C32.5448 9.72272 32.0308 10.0414 31.6606 10.4835C30.6737 11.6555 30.7148 13.5678 31.7737 14.6884C32.4009 15.3567 33.3776 15.6857 34.2823 15.5006C35.0842 15.3464 35.8039 14.8118 36.1946 14.0921C36.8628 12.8584 36.6675 11.1723 35.6188 10.2162C34.9506 9.59935 33.9739 9.3526 33.1 9.57879Z" fill="#FCBD06"/>
<path d="M42.034 8.22177C43.2163 7.48155 44.7893 7.27593 46.0641 7.91335C46.4651 8.08812 46.7941 8.38627 47.1128 8.68442C47.1231 8.40683 47.1128 8.11897 47.1231 7.8311C47.8119 7.84138 48.5007 7.8311 49.1998 7.84138V16.9092C49.1895 18.2766 48.84 19.7262 47.853 20.7234C46.7735 21.8235 45.1183 22.1628 43.6275 21.9366C42.034 21.7001 40.6461 20.5384 40.0292 19.0682C40.6461 18.77 41.2938 18.5336 41.9312 18.256C42.291 19.099 43.021 19.8187 43.936 19.9832C44.851 20.1477 45.9099 19.9215 46.5062 19.1607C47.1436 18.3794 47.1436 17.3101 47.1128 16.354C46.6399 16.8167 46.095 17.2279 45.437 17.3821C44.0079 17.7831 42.435 17.2896 41.3349 16.3232C40.2246 15.3568 39.5666 13.866 39.6283 12.3856C39.6591 10.7098 40.6049 9.09566 42.034 8.22177V8.22177ZM44.1622 9.53774C43.535 9.64055 42.949 9.9901 42.548 10.4733C41.5816 11.6248 41.5816 13.4651 42.5583 14.596C43.1135 15.2642 44.0079 15.6343 44.8715 15.5418C45.6837 15.4596 46.4342 14.9455 46.8352 14.2361C47.5137 13.0333 47.4007 11.3986 46.4857 10.3499C45.9202 9.70223 45.0155 9.38352 44.1622 9.53774V9.53774Z" fill="#3780FF"/>
<path d="M55.6152 8.74617C56.8489 7.59471 58.7509 7.20403 60.3342 7.81061C61.8352 8.37606 62.7913 9.80511 63.2745 11.2753C61.0435 12.2006 58.8229 13.1156 56.5919 14.0409C56.9003 14.6269 57.3732 15.1615 58.0107 15.3774C58.9051 15.6961 59.9743 15.583 60.7248 14.9867C61.023 14.7605 61.2594 14.4624 61.4856 14.1745C62.0511 14.5549 62.6165 14.925 63.182 15.3054C62.3801 16.5083 61.0333 17.3513 59.5836 17.485C57.9798 17.6803 56.2732 17.0635 55.2348 15.8092C53.5282 13.8352 53.6927 10.5248 55.6152 8.74617V8.74617ZM56.7153 10.6482C56.3657 11.1519 56.2218 11.7688 56.2321 12.3754C57.7228 11.7585 59.2135 11.1416 60.7043 10.5145C60.4575 9.93877 59.8612 9.58921 59.2547 9.49668C58.278 9.32191 57.2602 9.84624 56.7153 10.6482V10.6482Z" fill="#FA3913"/>
</g>
<defs>
<clipPath id="clip0_109_727">
<rect width="61.2745" height="20" fill="white" transform="translate(2 2)"/>
</clipPath>
</defs>
</svg>
