<svg xmlns="http://www.w3.org/2000/svg" width="25" height="24" viewBox="0 0 25 24" fill="none">
  <g clip-path="url(#clip0_140_592)">
    <path d="M24.2392 12.2869C24.2392 11.4782 24.161 10.6434 24.0305 9.86084H12.7349V14.4782H19.2044C18.9436 15.9652 18.0827 17.2695 16.8044 18.1043L20.6653 21.1043C22.9349 18.9913 24.2392 15.913 24.2392 12.2869Z" fill="#4280EF"/>
    <path d="M12.735 23.974C15.9697 23.974 18.6828 22.9044 20.6654 21.0783L16.8045 18.1044C15.735 18.8348 14.3524 19.2522 12.735 19.2522C9.60452 19.2522 6.96974 17.1392 6.00452 14.3218L2.03931 17.374C4.07409 21.4174 8.19583 23.974 12.735 23.974Z" fill="#34A353"/>
    <path d="M6.00453 14.2955C5.50888 12.8086 5.50888 11.1912 6.00453 9.70424L2.03932 6.62598C0.343665 10.0173 0.343665 14.0086 2.03932 17.3738L6.00453 14.2955Z" fill="#F6B704"/>
    <path d="M12.735 4.77392C14.4306 4.74783 16.1002 5.40001 17.3263 6.57392L20.7437 3.13044C18.5784 1.09566 15.7089 3.10689e-06 12.735 0.0260901C8.19583 0.0260901 4.07409 2.58261 2.03931 6.62609L6.00452 9.70435C6.96974 6.86088 9.60452 4.77392 12.735 4.77392Z" fill="#E54335"/>
  </g>
  <defs>
    <clipPath id="clip0_140_592">
      <rect width="23.4783" height="24" fill="white" transform="translate(0.760986)"/>
    </clipPath>
  </defs>
</svg>