<svg width="98" height="24" viewBox="0 0 98 24" fill="none" xmlns="http://www.w3.org/2000/svg">
<g clip-path="url(#clip0_109_727)">
<path d="M41 5.99997V17.9999H38.9167V8.58331H38.8889L35.1667 17.9999H33.7778L29.9722 8.58331H29.9444V17.9999H28.0278V5.99997H31.0278L34.4722 14.8889H34.5278L38.1667 5.99997H41ZM42.7222 6.91664C42.7222 6.58331 42.8333 6.30553 43.0833 6.08331C43.3333 5.86108 43.6111 5.74997 43.9444 5.74997C44.3056 5.74997 44.6111 5.86108 44.8333 6.08331C45.0556 6.30553 45.1944 6.58331 45.1944 6.91664C45.1944 7.24997 45.0833 7.52775 44.8333 7.74997C44.5833 7.9722 44.3056 8.08331 43.9444 8.08331C43.5833 8.08331 43.3056 7.9722 43.0833 7.74997C42.8611 7.49997 42.7222 7.2222 42.7222 6.91664ZM44.9722 9.38886V17.9999H42.9444V9.38886H44.9722ZM51.1111 16.5277C51.4167 16.5277 51.75 16.4722 52.1111 16.3055C52.4722 16.1666 52.8056 15.9722 53.1111 15.75V17.6388C52.7778 17.8333 52.4167 17.9722 52 18.0555C51.5833 18.1388 51.1389 18.1944 50.6389 18.1944C49.3611 18.1944 48.3333 17.8055 47.5556 17C46.75 16.1944 46.3611 15.1666 46.3611 13.9444C46.3611 12.5555 46.7778 11.4166 47.5833 10.5278C48.3889 9.63886 49.5278 9.19442 51.0278 9.19442C51.4167 9.19442 51.8056 9.24997 52.1667 9.33331C52.5556 9.41664 52.8611 9.55553 53.0833 9.66664V11.6111C52.7778 11.3888 52.4444 11.1944 52.1389 11.0833C51.8056 10.9722 51.4722 10.8889 51.1389 10.8889C50.3333 10.8889 49.6944 11.1388 49.1944 11.6666C48.6944 12.1944 48.4722 12.8889 48.4722 13.7778C48.4722 14.6389 48.7222 15.3333 49.1944 15.8055C49.6667 16.2778 50.3056 16.5277 51.1111 16.5277ZM58.8611 9.24997C59.0278 9.24997 59.1667 9.24997 59.3056 9.27775C59.4444 9.30553 59.5556 9.33331 59.6389 9.36108V11.4166C59.5278 11.3333 59.3889 11.2499 59.1667 11.1944C58.9444 11.1388 58.7222 11.0833 58.4167 11.0833C57.9167 11.0833 57.5 11.3055 57.1667 11.7222C56.8333 12.1389 56.6389 12.7778 56.6389 13.6666V17.9999H54.6111V9.38886H56.6389V10.75H56.6667C56.8611 10.2778 57.1389 9.91664 57.5 9.63886C57.8889 9.38886 58.3333 9.24997 58.8611 9.24997ZM59.75 13.8333C59.75 12.4166 60.1667 11.2778 60.9444 10.4444C61.75 9.61108 62.8611 9.19442 64.2778 9.19442C65.6111 9.19442 66.6667 9.58331 67.4167 10.3889C68.1667 11.1944 68.5556 12.2778 68.5556 13.6389C68.5556 15.0278 68.1389 16.1389 67.3611 16.9722C66.5556 17.8055 65.4722 18.2222 64.0833 18.2222C62.75 18.2222 61.6944 17.8333 60.9167 17.0555C60.1389 16.25 59.75 15.1666 59.75 13.8333ZM61.8611 13.7499C61.8611 14.6388 62.0556 15.3333 62.4722 15.8055C62.8889 16.2778 63.4722 16.5277 64.2222 16.5277C64.9444 16.5277 65.5278 16.3055 65.9167 15.8055C66.3056 15.3333 66.5 14.6388 66.5 13.6944C66.5 12.7777 66.3056 12.0833 65.9167 11.5833C65.5278 11.1111 64.9444 10.8611 64.25 10.8611C63.5 10.8611 62.9444 11.1111 62.5278 11.6111C62.0556 12.1388 61.8611 12.8333 61.8611 13.7499ZM71.5833 11.6666C71.5833 11.9444 71.6667 12.1944 71.8611 12.3611C72.0556 12.5277 72.4444 12.7222 73.0833 12.9722C73.8889 13.3055 74.4722 13.6666 74.7778 14.0555C75.1111 14.4722 75.2778 14.9444 75.2778 15.5278C75.2778 16.3333 74.9722 16.9722 74.3333 17.4722C73.7222 17.9722 72.8611 18.1944 71.8056 18.1944C71.4444 18.1944 71.0556 18.1388 70.6111 18.0555C70.1667 17.9722 69.8056 17.8611 69.5 17.7222V15.7222C69.8611 15.9722 70.2778 16.1944 70.6944 16.3333C71.1111 16.4722 71.5 16.5555 71.8611 16.5555C72.3056 16.5555 72.6667 16.5 72.8611 16.3611C73.0833 16.2222 73.1944 16.0278 73.1944 15.7222C73.1944 15.4444 73.0833 15.2222 72.8611 14.9999C72.6389 14.8055 72.1944 14.5833 71.5833 14.3333C70.8333 14.0278 70.3056 13.6666 70 13.2777C69.6944 12.8888 69.5278 12.3889 69.5278 11.7778C69.5278 11 69.8333 10.3611 70.4444 9.86106C71.0556 9.36106 71.8611 9.11108 72.8333 9.11108C73.1389 9.11108 73.4722 9.13886 73.8333 9.2222C74.1944 9.30553 74.5278 9.38886 74.7778 9.4722V11.4444C74.5 11.2778 74.1944 11.1111 73.8333 10.9722C73.4722 10.8333 73.1111 10.7778 72.7778 10.7778C72.3889 10.7778 72.0833 10.8611 71.8889 11C71.6944 11.1944 71.5833 11.3888 71.5833 11.6666ZM76.1389 13.8333C76.1389 12.4166 76.5556 11.2778 77.3333 10.4444C78.1389 9.61108 79.25 9.19442 80.6667 9.19442C82 9.19442 83.0556 9.58331 83.8056 10.3889C84.5556 11.1944 84.9444 12.2778 84.9444 13.6389C84.9444 15.0278 84.5278 16.1389 83.75 16.9722C82.9444 17.8055 81.8611 18.2222 80.4722 18.2222C79.1389 18.2222 78.0833 17.8333 77.3056 17.0555C76.5556 16.25 76.1389 15.1666 76.1389 13.8333ZM78.25 13.7499C78.25 14.6388 78.4445 15.3333 78.8611 15.8055C79.2778 16.2778 79.8611 16.5277 80.6111 16.5277C81.3333 16.5277 81.9167 16.3055 82.3056 15.8055C82.6944 15.3333 82.8889 14.6388 82.8889 13.6944C82.8889 12.7777 82.6944 12.0833 82.3056 11.5833C81.9167 11.1111 81.3333 10.8611 80.6389 10.8611C79.8889 10.8611 79.3333 11.1111 78.9167 11.6111C78.4722 12.1388 78.25 12.8333 78.25 13.7499ZM91.6944 11.0555H88.6667V17.9999H86.6111V11.0555H85.1667V9.38886H86.6111V8.19442C86.6111 7.30553 86.9167 6.55553 87.5 5.9722C88.0833 5.38886 88.8333 5.11108 89.75 5.11108C90 5.11108 90.2222 5.13886 90.4167 5.13886C90.6111 5.13886 90.7778 5.19442 90.9167 5.24997V6.99997C90.8611 6.9722 90.7222 6.91664 90.5556 6.86108C90.3889 6.80553 90.1945 6.77775 89.9722 6.77775C89.5556 6.77775 89.2222 6.91664 89 7.16664C88.7778 7.41664 88.6667 7.83331 88.6667 8.33331V9.36108H91.6944V7.41664L93.7222 6.80553V9.36108H95.7778V11.0278H93.7222V15.0555C93.7222 15.5833 93.8333 15.9444 94 16.1666C94.1945 16.3889 94.5 16.5 94.9167 16.5C95.0278 16.5 95.1667 16.4722 95.3333 16.4166C95.5 16.3611 95.6389 16.3055 95.75 16.2222V17.8889C95.6111 17.9722 95.4167 18.0278 95.1111 18.0833C94.8056 18.1389 94.5278 18.1666 94.2222 18.1666C93.3611 18.1666 92.7222 17.9444 92.3056 17.4999C91.8889 17.0555 91.6667 16.3611 91.6667 15.4444L91.6944 11.0555Z" fill="#737373"/>
<path d="M11.5 2H2V11.5H11.5V2Z" fill="#F25022"/>
<path d="M22 2H12.5V11.5H22V2Z" fill="#7FBA00"/>
<path d="M11.5 12.5H2V22H11.5V12.5Z" fill="#00A4EF"/>
<path d="M22 12.5H12.5V22H22V12.5Z" fill="#FFB900"/>
</g>
<defs>
<clipPath id="clip0_109_727">
<rect width="93.8889" height="20" fill="white" transform="translate(2 2)"/>
</clipPath>
</defs>
</svg>
